<svg width="32" height="32" viewBox="0 0 32 32" fill="none" xmlns="http://www.w3.org/2000/svg">
<path d="M22.5201 16H21.4799C21.2996 16 21.1266 16.0843 20.9991 16.2343C20.8716 16.3843 20.8 16.5878 20.8 16.8C20.8 17.0122 20.8716 17.2157 20.9991 17.3657C21.1266 17.5157 21.2996 17.6 21.4799 17.6H22.5201C22.7004 17.6 22.8734 17.5157 23.0009 17.3657C23.1284 17.2157 23.2 17.0122 23.2 16.8C23.2 16.5878 23.1284 16.3843 23.0009 16.2343C22.8734 16.0843 22.7004 16 22.5201 16Z" fill="#2B6BF3"/>
<path d="M25.7211 16H24.6789C24.4989 16 24.3262 16.0843 24.1989 16.2343C24.0715 16.3843 24 16.5878 24 16.8C24 17.0122 24.0715 17.2157 24.1989 17.3657C24.3262 17.5157 24.4989 17.6 24.6789 17.6H25.7211C25.9011 17.6 26.0738 17.5157 26.2011 17.3657C26.3285 17.2157 26.4 17.0122 26.4 16.8C26.4 16.5878 26.3285 16.3843 26.2011 16.2343C26.0738 16.0843 25.9011 16 25.7211 16Z" fill="#2B6BF3"/>
<path d="M28.9211 16H27.8789C27.6989 16 27.5262 16.0843 27.3989 16.2343C27.2715 16.3843 27.2 16.5878 27.2 16.8C27.2 17.0122 27.2715 17.2157 27.3989 17.3657C27.5262 17.5157 27.6989 17.6 27.8789 17.6H28.9211C29.1011 17.6 29.2738 17.5157 29.4012 17.3657C29.5285 17.2157 29.6 17.0122 29.6 16.8C29.6 16.5878 29.5285 16.3843 29.4012 16.2343C29.2738 16.0843 29.1011 16 28.9211 16Z" fill="#2B6BF3"/>
<path d="M22.5201 19.2H21.4799C21.2996 19.2 21.1266 19.2843 20.9991 19.4343C20.8716 19.5844 20.8 19.7878 20.8 20C20.8 20.2122 20.8716 20.4157 20.9991 20.5657C21.1266 20.7157 21.2996 20.8 21.4799 20.8H22.5201C22.7004 20.8 22.8734 20.7157 23.0009 20.5657C23.1284 20.4157 23.2 20.2122 23.2 20C23.2 19.7878 23.1284 19.5844 23.0009 19.4343C22.8734 19.2843 22.7004 19.2 22.5201 19.2Z" fill="#2B6BF3"/>
<path d="M25.7211 19.2H24.6789C24.4989 19.2 24.3262 19.2843 24.1989 19.4343C24.0715 19.5844 24 19.7878 24 20C24 20.2122 24.0715 20.4157 24.1989 20.5657C24.3262 20.7157 24.4989 20.8 24.6789 20.8H25.7211C25.9011 20.8 26.0738 20.7157 26.2011 20.5657C26.3285 20.4157 26.4 20.2122 26.4 20C26.4 19.7878 26.3285 19.5844 26.2011 19.4343C26.0738 19.2843 25.9011 19.2 25.7211 19.2Z" fill="#2B6BF3"/>
<path d="M28.9211 19.2H27.8789C27.6989 19.2 27.5262 19.2843 27.3989 19.4343C27.2715 19.5844 27.2 19.7878 27.2 20C27.2 20.2122 27.2715 20.4157 27.3989 20.5657C27.5262 20.7157 27.6989 20.8 27.8789 20.8H28.9211C29.1011 20.8 29.2738 20.7157 29.4012 20.5657C29.5285 20.4157 29.6 20.2122 29.6 20C29.6 19.7878 29.5285 19.5844 29.4012 19.4343C29.2738 19.2843 29.1011 19.2 28.9211 19.2Z" fill="#2B6BF3"/>
<path d="M22.5201 22.4H21.4799C21.2996 22.4 21.1266 22.4843 20.9991 22.6343C20.8716 22.7843 20.8 22.9878 20.8 23.2C20.8 23.4122 20.8716 23.6157 20.9991 23.7657C21.1266 23.9157 21.2996 24 21.4799 24H22.5201C22.7004 24 22.8734 23.9157 23.0009 23.7657C23.1284 23.6157 23.2 23.4122 23.2 23.2C23.2 22.9878 23.1284 22.7843 23.0009 22.6343C22.8734 22.4843 22.7004 22.4 22.5201 22.4Z" fill="#2B6BF3"/>
<path d="M25.7211 22.4H24.6789C24.4989 22.4 24.3262 22.4843 24.1989 22.6343C24.0715 22.7843 24 22.9878 24 23.2C24 23.4122 24.0715 23.6157 24.1989 23.7657C24.3262 23.9157 24.4989 24 24.6789 24H25.7211C25.9011 24 26.0738 23.9157 26.2011 23.7657C26.3285 23.6157 26.4 23.4122 26.4 23.2C26.4 22.9878 26.3285 22.7843 26.2011 22.6343C26.0738 22.4843 25.9011 22.4 25.7211 22.4Z" fill="#2B6BF3"/>
<path d="M28.9211 22.4H27.8789C27.6989 22.4 27.5262 22.4843 27.3989 22.6343C27.2715 22.7843 27.2 22.9878 27.2 23.2C27.2 23.4122 27.2715 23.6157 27.3989 23.7657C27.5262 23.9157 27.6989 24 27.8789 24H28.9211C29.1011 24 29.2738 23.9157 29.4012 23.7657C29.5285 23.6157 29.6 23.4122 29.6 23.2C29.6 22.9878 29.5285 22.7843 29.4012 22.6343C29.2738 22.4843 29.1011 22.4 28.9211 22.4Z" fill="#2B6BF3"/>
<path d="M29.913 12.869H22.2609V0.695624C22.2609 0.511133 22.1876 0.334198 22.0571 0.203744C21.9267 0.0732887 21.7497 0 21.5652 0H0.695653C0.511155 0 0.334213 0.0732887 0.203753 0.203744C0.0732929 0.334198 1.18475e-06 0.511133 1.18475e-06 0.695624V29.2162C-0.000205216 29.3281 0.0265597 29.4383 0.0780268 29.5376C0.129494 29.6369 0.204146 29.7223 0.295653 29.7866L3.28 31.8735C3.39714 31.9558 3.53683 32 3.68 32C3.82318 32 3.96286 31.9558 4.08 31.8735L6.66087 30.0649L9.24174 31.8735C9.35888 31.9558 9.49857 32 9.64174 32C9.78491 32 9.9246 31.9558 10.0417 31.8735L12.6226 30.0649L15.2035 31.8735C15.3206 31.9558 15.4603 32 15.6035 32C15.7467 32 15.8863 31.9558 16.0035 31.8735L18.5843 30.0649L21.1652 31.8735C21.2825 31.9554 21.4222 31.9991 21.5652 31.9987C21.677 31.9998 21.7871 31.9723 21.8852 31.9187C21.9981 31.8602 22.0928 31.7719 22.1591 31.6634C22.2253 31.5548 22.2605 31.4302 22.2609 31.3031V26.4337H29.913C30.4665 26.4337 30.9974 26.2139 31.3887 25.8225C31.7801 25.4311 32 24.9003 32 24.3468V14.9559C32 14.4024 31.7801 13.8716 31.3887 13.4803C30.9974 13.0889 30.4665 12.869 29.913 12.869ZM20.8696 3.82593H19.8052L20.8696 2.76163V3.82593ZM20.8696 1.7808L18.8243 3.82593H16.6748L19.1096 1.39125H20.8696V1.7808ZM1.39131 3.47812L3.47826 1.39125H5.63478L3.2 3.82593H1.39131V3.47812ZM6.6087 1.39125H8.75131L6.31652 3.82593H4.17391L6.6087 1.39125ZM9.73913 1.39125H11.8817L9.44696 3.82593H7.30435L9.73913 1.39125ZM12.8696 1.39125H15.0122L12.5774 3.82593H10.4348L12.8696 1.39125ZM16 1.39125H18.1426L15.7078 3.82593H13.5652L16 1.39125ZM2.50435 1.39125L1.39131 2.50425V1.39125H2.50435ZM20.8696 29.9675L18.9844 28.6458C18.8672 28.5635 18.7275 28.5193 18.5843 28.5193C18.4412 28.5193 18.3015 28.5635 18.1843 28.6458L15.6035 30.4544L13.0226 28.6458C12.9055 28.5635 12.7658 28.5193 12.6226 28.5193C12.4794 28.5193 12.3397 28.5635 12.2226 28.6458L9.64174 30.4544L7.06087 28.6458C6.94373 28.5635 6.80405 28.5193 6.66087 28.5193C6.5177 28.5193 6.37801 28.5635 6.26087 28.6458L3.68 30.4544L1.39131 28.8684V5.21718H20.8696V12.869H20.5217C19.9682 12.869 19.4374 13.0889 19.046 13.4803C18.6547 13.8716 18.4348 14.4024 18.4348 14.9559V24.3468C18.4348 24.9003 18.6547 25.4311 19.046 25.8225C19.4374 26.2139 19.9682 26.4337 20.5217 26.4337H20.8696V29.9675ZM30.6087 24.3468C30.6087 24.5313 30.5354 24.7083 30.4049 24.8387C30.2745 24.9692 30.0975 25.0425 29.913 25.0425H20.5217C20.3372 25.0425 20.1603 24.9692 20.0298 24.8387C19.8994 24.7083 19.8261 24.5313 19.8261 24.3468V14.9559C19.8261 14.7714 19.8994 14.5945 20.0298 14.464C20.1603 14.3336 20.3372 14.2603 20.5217 14.2603H29.913C30.0975 14.2603 30.2745 14.3336 30.4049 14.464C30.5354 14.5945 30.6087 14.7714 30.6087 14.9559V24.3468Z" fill="#2B6BF3"/>
<path d="M16.84 18.4H3.16002C2.95846 18.4 2.76515 18.4843 2.62262 18.6343C2.4801 18.7843 2.40002 18.9878 2.40002 19.2C2.40002 19.4122 2.4801 19.6157 2.62262 19.7657C2.76515 19.9157 2.95846 20 3.16002 20H16.84C17.0416 20 17.2349 19.9157 17.3774 19.7657C17.52 19.6157 17.6 19.4122 17.6 19.2C17.6 18.9878 17.52 18.7843 17.3774 18.6343C17.2349 18.4843 17.0416 18.4 16.84 18.4Z" fill="#2B6BF3"/>
<path d="M16.84 21.6H3.16002C2.95846 21.6 2.76515 21.6843 2.62262 21.8343C2.4801 21.9843 2.40002 22.1878 2.40002 22.4C2.40002 22.6122 2.4801 22.8157 2.62262 22.9657C2.76515 23.1157 2.95846 23.2 3.16002 23.2H16.84C17.0416 23.2 17.2349 23.1157 17.3774 22.9657C17.52 22.8157 17.6 22.6122 17.6 22.4C17.6 22.1878 17.52 21.9843 17.3774 21.8343C17.2349 21.6843 17.0416 21.6 16.84 21.6Z" fill="#2B6BF3"/>
<path d="M16.84 24.8H3.16002C2.95846 24.8 2.76515 24.8843 2.62262 25.0343C2.4801 25.1843 2.40002 25.3878 2.40002 25.6C2.40002 25.8122 2.4801 26.0156 2.62262 26.1657C2.76515 26.3157 2.95846 26.4 3.16002 26.4H16.84C17.0416 26.4 17.2349 26.3157 17.3774 26.1657C17.52 26.0156 17.6 25.8122 17.6 25.6C17.6 25.3878 17.52 25.1843 17.3774 25.0343C17.2349 24.8843 17.0416 24.8 16.84 24.8Z" fill="#2B6BF3"/>
<path d="M5.9504 13.532C5.30137 13.628 4.56611 13.24 4.13493 12.572C4.08263 12.47 4.00661 12.3788 3.9118 12.3043C3.81699 12.2298 3.7055 12.1737 3.58454 12.1396C3.46357 12.1054 3.33583 12.094 3.20956 12.1062C3.08329 12.1183 2.96132 12.1536 2.85151 12.2099C2.74171 12.2661 2.64652 12.3421 2.57211 12.4328C2.4977 12.5235 2.44572 12.627 2.41953 12.7365C2.39334 12.846 2.39353 12.9592 2.42007 13.0687C2.44662 13.1781 2.49893 13.2815 2.57363 13.372C3.04888 14.113 3.80849 14.6804 4.71588 14.972V16H6.53135V15.056C7.5707 14.82 8.6509 14.088 8.77798 13.056C9.00492 11.268 7.41639 10.8 6.90806 10.656C6.45419 10.528 6.10471 10.432 5.78701 10.356C4.94735 10.144 4.78396 10.088 4.61149 9.85599C4.51453 9.70593 4.48684 9.52873 4.53417 9.36116C4.58149 9.19358 4.7002 9.04849 4.86566 8.95599C5.01195 8.89231 5.17116 8.85491 5.33402 8.84598C5.49687 8.83706 5.66012 8.85678 5.81424 8.90399C6.08017 8.96242 6.32915 9.06955 6.54499 9.21841C6.76082 9.36728 6.93865 9.55453 7.06691 9.76799C7.17585 9.95736 7.36568 10.1008 7.59464 10.1668C7.8236 10.2329 8.07294 10.216 8.28781 10.12C8.50267 10.024 8.66546 9.85668 8.74037 9.6549C8.81527 9.45311 8.79615 9.23336 8.68721 9.04399C8.2317 8.2841 7.45851 7.71027 6.53135 7.44399V6.39999H4.69773V7.31599C4.38979 7.37116 4.09692 7.47848 3.83538 7.63199C3.26961 7.95838 2.87301 8.4685 2.7319 9.05133C2.5908 9.63416 2.71661 10.2425 3.08196 10.744C3.63568 11.484 4.35733 11.664 5.2696 11.896C5.56461 11.972 5.90501 12.056 6.31349 12.176C6.95344 12.368 7.00791 12.484 6.95798 12.892C6.92621 13.116 6.45873 13.456 5.9504 13.532Z" fill="#2B6BF3"/>
</svg>
