<svg width="29" height="34" viewBox="0 0 29 34" fill="none" xmlns="http://www.w3.org/2000/svg">
<path d="M18.2059 15.9419C17.52 15.7907 16.8101 15.7907 16.1242 15.9419L14.8891 16.1537L13.9176 6.18764C13.8551 5.62152 13.5826 5.10098 13.1558 4.73218C12.7289 4.36337 12.1799 4.17407 11.6205 4.20288C11.0612 4.23168 10.5337 4.47643 10.1456 4.88721C9.7576 5.29798 9.53822 5.84385 9.53222 6.4135V21.659C8.02176 20.7926 6.42933 20.0832 4.77905 19.5416C4.45538 19.4245 4.10827 19.3908 3.76865 19.4433C3.42904 19.4958 3.10749 19.6331 2.83267 19.8427C2.55786 20.0524 2.33832 20.3279 2.19364 20.6448C2.04896 20.9618 1.98363 21.3102 2.00348 21.659C2.01805 22.0053 2.11304 22.3432 2.28069 22.645C2.44833 22.9468 2.68386 23.2039 2.96799 23.3953C4.78465 24.6681 6.41927 26.1906 7.82525 27.9195C8.42043 28.6383 9.13717 29.2431 9.94162 29.7052C11.2366 30.4852 12.6088 31.124 14.0356 31.6109C15.3747 32.0283 16.6431 32.652 17.7965 33.4602L18.0879 33.6719C18.2388 33.7795 18.4256 33.8218 18.6071 33.7894C18.7887 33.7569 18.9501 33.6525 19.0559 33.499C19.1617 33.3455 19.2033 33.1555 19.1714 32.9709C19.1395 32.7862 19.0368 32.622 18.8859 32.5144L18.5945 32.3097C17.3458 31.4245 15.9725 30.7367 14.5213 30.2699C13.1867 29.8154 11.9029 29.2192 10.691 28.4913C10.031 28.1086 9.44162 27.6118 8.94935 27.0232C7.45411 25.187 5.71686 23.5695 3.78678 22.2166C3.67803 22.1577 3.58664 22.0705 3.52201 21.9638C3.45738 21.8571 3.42183 21.7349 3.41902 21.6096C3.41306 21.4923 3.43596 21.3754 3.48563 21.2694C3.53531 21.1634 3.6102 21.0717 3.70352 21.0026C3.79286 20.9324 3.89771 20.8854 4.00895 20.8657C4.1202 20.846 4.23449 20.8542 4.3419 20.8897C6.27652 21.5037 8.11529 22.395 9.80284 23.5365C9.90576 23.6161 10.0285 23.6649 10.1572 23.6774C10.286 23.6899 10.4156 23.6655 10.5314 23.607C10.6482 23.5488 10.7466 23.4584 10.8153 23.3461C10.884 23.2338 10.9203 23.1041 10.92 22.9718V6.4135C10.9252 6.20553 11.0074 6.00722 11.1501 5.85821C11.2928 5.7092 11.4856 5.62048 11.6898 5.60978C11.8941 5.59908 12.0948 5.66719 12.2518 5.8005C12.4088 5.9338 12.5106 6.12247 12.5368 6.3288L13.5846 17.0924C13.5943 17.1903 13.6241 17.285 13.6719 17.3704C13.7197 17.4559 13.7846 17.5303 13.8623 17.5888C13.9401 17.6473 14.029 17.6886 14.1234 17.71C14.2177 17.7315 14.3155 17.7327 14.4103 17.7135L16.4226 17.2971C16.9098 17.1913 17.4134 17.1913 17.9006 17.2971L20.239 17.8265C20.7619 17.9466 21.2516 18.1847 21.6719 18.5231C22.0922 18.8615 22.4325 19.2915 22.6676 19.7815L23.8264 22.1601C24.3251 23.1898 24.5839 24.3225 24.5828 25.4704C24.5815 26.2474 24.6819 27.0212 24.8811 27.7713C24.8784 27.7948 24.8784 27.8185 24.8811 27.8419L27.0322 33.3543C27.0853 33.4902 27.1786 33.606 27.2991 33.6856C27.4197 33.7653 27.5616 33.8049 27.7053 33.7989C27.7932 33.7992 27.8803 33.7824 27.962 33.7495C28.0468 33.7153 28.1242 33.6644 28.1896 33.5998C28.255 33.5351 28.3073 33.4579 28.3434 33.3727C28.3795 33.2875 28.3987 33.1959 28.3999 33.1031C28.4012 33.0103 28.3844 32.9182 28.3506 32.832L26.2134 27.362C26.0501 26.7452 25.9684 26.1091 25.9706 25.4704C25.9697 24.1137 25.661 22.7756 25.0685 21.5602L23.9097 19.1746C23.5836 18.4963 23.1119 17.9013 22.5294 17.4334C21.9469 16.9655 21.2685 16.6367 20.5443 16.4713L18.2059 15.9419Z" fill="#FD466E"/>
<path d="M2.57502 8.20001H6.92502C7.11731 8.20001 7.30171 8.12977 7.43768 8.00475C7.57364 7.87973 7.65002 7.71016 7.65002 7.53335C7.65002 7.35653 7.57364 7.18697 7.43768 7.06194C7.30171 6.93692 7.11731 6.86668 6.92502 6.86668H2.57502C2.38274 6.86668 2.19834 6.79644 2.06237 6.67142C1.92641 6.54639 1.85002 6.37682 1.85002 6.20001V2.20001C1.85002 2.0232 1.92641 1.85363 2.06237 1.72861C2.19834 1.60358 2.38274 1.53335 2.57502 1.53335H21.425C21.6173 1.53335 21.8017 1.60358 21.9377 1.72861C22.0736 1.85363 22.15 2.0232 22.15 2.20001V6.20001C22.15 6.37682 22.0736 6.54639 21.9377 6.67142C21.8017 6.79644 21.6173 6.86668 21.425 6.86668H17.075C16.8827 6.86668 16.6983 6.93692 16.5624 7.06194C16.4264 7.18697 16.35 7.35653 16.35 7.53335C16.35 7.71016 16.4264 7.87973 16.5624 8.00475C16.6983 8.12977 16.8827 8.20001 17.075 8.20001H21.425C22.0019 8.20001 22.5551 7.9893 22.963 7.61423C23.3709 7.23915 23.6 6.73045 23.6 6.20001V2.20001C23.6 1.66958 23.3709 1.16087 22.963 0.785799C22.5551 0.410726 22.0019 0.200012 21.425 0.200012L2.57502 0.200012C1.99818 0.200012 1.44496 0.410726 1.03707 0.785799C0.629176 1.16087 0.400024 1.66958 0.400024 2.20001V6.20001C0.400024 6.73045 0.629176 7.23915 1.03707 7.61423C1.44496 7.9893 1.99818 8.20001 2.57502 8.20001Z" fill="#FD466E"/>
</svg>
