<svg width="32" height="26" viewBox="0 0 32 26" fill="none" xmlns="http://www.w3.org/2000/svg">
<path d="M10.4411 5.83722C10.2498 5.81528 10.0575 5.80306 9.86504 5.80062C8.65605 5.78234 7.4737 6.15822 6.49508 6.87196L0.711841 10.9577C0.494606 11.1164 0.317174 11.3238 0.193627 11.5635C0.0700809 11.8032 0.00382206 12.0685 0.000109782 12.3384L-0.000584413 24.2C-0.00500672 24.6277 0.160066 24.9596 0.457257 25.2657C0.754448 25.5719 1.16024 25.7473 1.58578 25.7534L5.30996 25.8H5.48541C7.51238 25.7975 9.51593 25.3644 11.3646 24.529C12.4732 24.0186 13.4822 23.3133 14.344 22.4462C14.8373 21.9563 15.3861 21.5264 15.9793 21.1653L22.5272 17.1727C23.116 16.8164 23.5673 16.2703 23.8077 15.6232C24.0482 14.9762 24.0636 14.2664 23.8514 13.6094C23.6537 13.0233 23.2802 12.5131 22.7823 12.1491C22.2843 11.785 21.6864 11.585 21.0707 11.5765C20.6989 11.5724 20.3296 11.6379 19.9816 11.7695L12.3876 14.6508C12.2817 14.6905 12.1695 14.7108 12.0565 14.7107C11.913 14.7084 11.7719 14.6738 11.6435 14.6093C11.5151 14.5448 11.4029 14.4521 11.315 14.338C11.1773 14.1448 11.1095 13.9099 11.123 13.6726L11.1726 6.66568C11.1739 6.46118 11.0999 6.26344 10.9649 6.11049C10.8298 5.95755 10.6432 5.86021 10.4411 5.83722ZM11.9969 16.3643C12.3201 16.369 12.6413 16.3126 12.9437 16.1979H12.9669L20.5609 13.3199C20.7143 13.2619 20.877 13.2326 21.0409 13.2334C21.3206 13.2369 21.5924 13.3278 21.8184 13.4936C22.0444 13.6593 22.2135 13.8917 22.3021 14.1584C22.393 14.4588 22.3804 14.7812 22.2662 15.0735C22.1521 15.3657 21.9431 15.6107 21.6732 15.7687L15.1285 19.7613C14.4248 20.1899 13.7737 20.7002 13.1887 21.2817C12.4627 22.0108 11.6129 22.6035 10.6794 23.0318C8.99636 23.7929 7.17747 24.2203 5.33202 24.2H1.60002V12.3384L7.4584 8.21279C8.05989 7.77378 8.77245 7.5143 9.51414 7.46419L9.43801 13.6526C9.42141 14.2665 9.61415 14.8675 9.98422 15.3561C10.2232 15.6649 10.5281 15.9159 10.8765 16.0903C11.2248 16.2648 11.6077 16.3584 11.9969 16.3643Z" fill="#FFDD2D"/>
<path d="M15.3398 25.5947C15.8194 25.5506 16.2791 25.3902 16.675 25.1287C17.1981 25.5639 17.87 25.8026 18.5648 25.8C18.6561 25.8 18.7485 25.8 18.8421 25.8C19.2317 25.7627 19.6091 25.6494 19.9507 25.4672C20.2924 25.285 20.5909 25.0378 20.8277 24.7409C21.2637 24.9199 21.7398 24.9922 22.2127 24.9511C22.6855 24.9101 23.14 24.7571 23.5348 24.506C23.9296 24.255 24.2521 23.9138 24.473 23.5138C24.6938 23.1137 24.8059 22.6673 24.7991 22.2154C24.7991 22.1937 24.7991 22.1709 24.7991 22.147L24.5115 19.3706C24.5057 19.2609 24.4765 19.1534 24.4258 19.0548C24.375 18.9561 24.3038 18.8682 24.2163 18.7966C24.1289 18.7249 24.027 18.6709 23.917 18.6378C23.8069 18.6047 23.691 18.5932 23.5761 18.604C23.4613 18.6148 23.3499 18.6477 23.2488 18.7007C23.1477 18.7537 23.059 18.8257 22.988 18.9123C22.917 18.9989 22.8652 19.0983 22.8358 19.2046C22.8064 19.3108 22.7999 19.4216 22.8168 19.5303L23.101 22.2676C23.1013 22.4862 23.0323 22.6997 22.9029 22.8803C22.7736 23.0609 22.59 23.2002 22.3761 23.2798C22.1622 23.3593 21.9281 23.3756 21.7044 23.3264C21.4806 23.2772 21.2777 23.1649 21.1222 23.004C21.017 22.8987 20.8841 22.8222 20.7372 22.7825C20.5904 22.7428 20.4351 22.7414 20.2875 22.7784C20.1398 22.8153 20.0054 22.8893 19.898 22.9927C19.7907 23.096 19.7145 23.2248 19.6774 23.3658C19.6228 23.5867 19.4969 23.7858 19.3174 23.9353C19.138 24.0848 18.9139 24.1771 18.6766 24.1994C18.4393 24.2217 18.2006 24.1727 17.9939 24.0595C17.7873 23.9462 17.623 23.7743 17.524 23.5678C17.4587 23.4368 17.3577 23.3249 17.2316 23.2436C17.1054 23.1623 16.9587 23.1148 16.8067 23.1058C16.6546 23.0968 16.5028 23.1267 16.3671 23.1925C16.2313 23.2583 16.1166 23.3575 16.0348 23.4798C15.9423 23.6221 15.8167 23.7422 15.6677 23.8309C15.5187 23.9196 15.3503 23.9745 15.1755 23.9914C14.9485 24.0126 14.7396 24.1188 14.5948 24.2865C14.4501 24.4543 14.3812 24.6699 14.4035 24.886C14.4257 25.102 14.5372 25.3008 14.7134 25.4386C14.8897 25.5764 15.1162 25.642 15.3432 25.6208L15.3398 25.5947Z" fill="#FFDD2D"/>
<path d="M28.7464 0.20002H15.2429C14.5951 0.20088 13.974 0.469751 13.5159 0.947669C13.0579 1.42559 12.8001 2.07353 12.7993 2.74941V11.2582C12.7993 11.4735 12.8813 11.68 13.0272 11.8323C13.1732 11.9846 13.3711 12.0701 13.5775 12.0701C13.7839 12.0701 13.9819 11.9846 14.1278 11.8323C14.2737 11.68 14.3557 11.4735 14.3557 11.2582V6.13019H29.6429V14.4441C29.6421 14.6911 29.5477 14.9276 29.3803 15.1023C29.213 15.2769 28.9862 15.3753 28.7495 15.3762H25.4904C25.284 15.3762 25.086 15.4617 24.9401 15.614C24.7941 15.7663 24.7122 15.9728 24.7122 16.1881C24.7122 16.4034 24.7941 16.6099 24.9401 16.7622C25.086 16.9145 25.284 17 25.4904 17H28.7495C29.0711 17.0004 29.3896 16.9347 29.6868 16.8066C29.984 16.6785 30.2541 16.4906 30.4816 16.2535C30.7091 16.0164 30.8896 15.7349 31.0128 15.425C31.1359 15.1151 31.1993 14.7829 31.1993 14.4474V2.75591C31.1997 2.41987 31.1365 2.08705 31.0134 1.77655C30.8902 1.46605 30.7095 1.18398 30.4816 0.946517C30.2537 0.709053 29.9831 0.520872 29.6853 0.39277C29.3876 0.264668 29.0685 0.199165 28.7464 0.20002ZM14.3495 4.51612V2.74941C14.3503 2.50247 14.4447 2.26589 14.6121 2.09128C14.7794 1.91667 15.0062 1.8182 15.2429 1.81734H28.7464C28.9836 1.81734 29.2112 1.91543 29.3792 2.09014C29.5473 2.26484 29.6421 2.50191 29.6429 2.74941V4.51612H14.3495Z" fill="#FFDD2D"/>
</svg>
