<svg xmlns="http://www.w3.org/2000/svg" width="48" height="48" fill="none" viewBox="0 0 48 48">
  <path fill="#2B6BF3" d="M44.7236 33.9657c-.3967-.5407-.7933-1.0813-1.2693-1.5448-1.1107-1.0813-2.5386-1.6219-4.1253-1.7764-.5553-.0772-1.0313-.1545-1.2693-.7724-.7933-2.1626-2.2213-3.7073-4.2839-4.7114-.238-.0773-.476-.2317-.6347-.4634-.0793-.1545-.1586-.4635-.0793-.6179.0793-.1545.3967-.309.5553-.2317.238.0772.476.2317.714.4634.476.3862.8727.9268 1.3487 1.313 1.0313.6951 1.8246.3089 2.1419-.8496.3173-1.0041.3174-1.9309.0794-2.935-.238-1.1586-1.2694-1.6992-2.3007-1.0813-.476.2317-.7933.6951-1.19 1.0041-.238.2317-.3966.4634-.6346.6179-.5553.3861-1.1107.3089-1.5073-.2318-.238-.3089-.3173-.6179-.476-.9268-.3173-.6179-.5553-.6179-.952-.0772-.0793.0772-.0793.1544-.0793.2317-.0794 0-.0794-.0773-.1587-.0773v-.3089c0-.8496-.3967-1.313-1.2693-1.4675-.3173-.0772-.714-.0772-1.0313-.0772-1.8247 0-3.4906-.6179-4.7599-1.8537-.476-.3862-.8727-.8496-1.2693-1.3131-.1587-.1544-.1587-.3089 0-.5406.1586-.2317.3966-.5407.4759-.8496.1587-.8496-.6346-2.3944-1.5073-2.7033-.6346-.2317-1.1899-.2317-1.8246-.0772-1.666.3861-2.618 1.5447-3.1733 3.0122-1.19 3.0895-1.5073 6.3334-1.0313 9.6546.238 1.9309 1.19 3.0122 3.0146 3.3212 1.904.3862 3.8873.6179 5.8706.8496.8726.0772 1.428.4634 1.7453 1.313.6346 1.5447 1.2693 3.1667 1.904 4.7114.1586.309.3173.6952.5553 1.0041.6346 1.0041 1.5073 1.2358 2.6179.8496 1.1107-.3861 1.666-1.2358 1.3487-2.3943-.238-.8496-.5553-1.622-.8727-2.4716-.476-1.1585-1.0313-2.3171-1.3486-3.5529-.714-2.3171-1.9833-3.4756-4.4426-3.7846-.952-.1545-1.8246-.1545-2.7766-.3862-.952-.1544-1.2693-.5406-1.19-1.5447.0793-.6951.1587-1.313.3173-2.0082.0794-.4634.238-.5406.714-.3089 1.5073.9268 3.1733 1.5447 4.9186 1.7764.8726.0773 1.7453.2318 2.5386 0 .0793.1545.0793.2318.1587.3862.3966.8496.7933 1.622 1.1106 2.4716 1.0313 2.7805 1.9833 5.5611 2.9353 8.4188.1587.5407.3967.6179.8727.309.3173-.1545.5553-.3862.8726-.5407 2.4593-1.3903 4.8393-1.2358 7.1399.4634.5553.4634 1.1106.9269 1.666 1.4675.238-.3862.0793-.8496-.1587-1.1585Z"/>
  <path fill="#2B6BF3" d="M31.7663 37.7376H22.298c-.7043 0-1.0955-.2341-1.252-.9362-.1565-.6241-.3913-1.1702-.5478-1.7943-.3912-1.1702-.4695-2.3404 0-3.5887.0783-.156.0783-.312.1565-.5461.2348-1.1702-.2347-1.7943-1.4868-1.8723h-7.9033c-1.79975 0-3.67777.078-5.47754.156-1.56501.078-2.11277.7022-1.56501 2.1064.4695 1.1702.39125 2.1844 0 3.3546-.46951 1.4823-.78251 2.9646-1.17377 4.4468-.1565.5461.07826.7802.54776.8582.4695.078.93901.078 1.33026.078.62601 0 .93901-.234 1.09551-.8582.07825-.39.07825-.7801.07825-1.1702.39126-3.0425 2.73878-5.3049 5.86884-5.461 2.9735-.234 5.5558 1.7164 6.3383 4.6809.1565.6241.2347 1.3262.313 2.0284.0782.468.313.7021.7825.7801h12.5984c.313 0 .626-.078.7825-.3901.5477-.9361 0-1.7943-1.0173-1.8723ZM39.0741 35C36.7037 35 35 36.7196 35 38.9626 35 41.2056 36.7778 43 39 43c2.2963 0 4-1.7196 4-4.0374C43 36.7196 41.2963 35 39.0741 35Z"/>
  <path fill="#2B6BF3" d="M12.5425 34.0025c-2.4764-.0833-4.54001 1.9156-4.54001 4.4142-.08255 2.5818 1.89856 4.5807 4.45751 4.5807 2.4764.0833 4.4575-1.8323 4.54-4.4142 0-2.5818-1.8986-4.5807-4.4575-4.5807ZM23.0266 11.9352c1.5542.3171 3.272-.555 3.9264-2.06141.2454-.55499.3272-1.10998.409-1.74426.5726.15857 1.227.31714 1.8814.47571.409.07928.6543 0 .7361-.31714.0818-.31714-.0817-.55499-.4907-.63428-.7362-.15857-1.4724-.39642-2.2086-.55499-.1636-.07928-.409-.23785-.4908-.39642-.818-1.34784-2.5358-1.98212-4.09-1.5857C21.1452 5.51314 20 6.94026 20 8.52595c0 1.66495 1.227 3.01285 3.0266 3.40925Z"/>
</svg>