<svg width="657" height="376" viewBox="0 0 657 376" fill="none" xmlns="http://www.w3.org/2000/svg">
<path d="M491 114C491 115.105 490.105 116 489 116H481C479.895 116 479 116.895 479 118V317C479 318.105 478.105 319 477 319H468C466.895 319 466 318.105 466 317V230C466 228.895 465.105 228 464 228H454C452.895 228 452 227.105 452 226V144C452 142.895 451.105 142 450 142H448C446.895 142 446 141.105 446 140V138.5C446 137.672 445.328 137 444.5 137C443.672 137 443 136.328 443 135.5V135C443 133.895 442.105 133 441 133H429C427.895 133 427 132.105 427 131V114.5C427 114.224 426.776 114 426.5 114C426.224 114 426 113.776 426 113.5V91C426 90.4477 425.552 90 425 90C424.448 90 424 90.4477 424 91V113.5C424 113.776 423.776 114 423.5 114C423.224 114 423 114.224 423 114.5V131C423 132.105 422.105 133 421 133H410C408.895 133 408 133.895 408 135C408 136.105 407.105 137 406 137C404.895 137 404 137.895 404 139V140C404 141.105 403.105 142 402 142H401C399.895 142 399 142.895 399 144V309C399 310.105 398.105 311 397 311H391C389.895 311 389 310.105 389 309V225C389 223.895 388.105 223 387 223H350C348.895 223 348 223.895 348 225V353C348 354.105 347.105 355 346 355H344C342.895 355 342 354.105 342 353V334C342 332.895 341.105 332 340 332H338C336.895 332 336 331.105 336 330V304C336 302.895 335.105 302 334 302H302C300.895 302 300 302.895 300 304V336C300 337.105 299.105 338 298 338H293C291.895 338 291 337.105 291 336V313C291 311.895 290.105 311 289 311H267C265.895 311 265 310.105 265 309V233C265 231.895 264.105 231 263 231H255C253.895 231 253 230.105 253 229V198C253 196.895 252.105 196 251 196H244C242.895 196 242 195.105 242 194V160C242 158.895 241.105 158 240 158H238C236.895 158 236 157.105 236 156V104C236 102.895 235.105 102 234 102C232.895 102 232 102.895 232 104V156C232 157.105 231.105 158 230 158H228C226.895 158 226 158.895 226 160V194C226 195.105 225.105 196 224 196H218C216.895 196 216 196.895 216 198V229C216 230.105 215.105 231 214 231H205C203.895 231 203 231.895 203 233V319C203 320.105 202.105 321 201 321H198C196.895 321 196 320.105 196 319V256C196 254.895 195.105 254 194 254H188C186.895 254 186 253.105 186 252V87C186 85.8954 185.105 85 184 85H176C174.895 85 174 84.1046 174 83V31C174 29.8954 173.105 29 172 29H168C166.895 29 166 28.1046 166 27V15.8284C166 15.298 165.789 14.7893 165.414 14.4142L151.586 0.585786C151.211 0.210714 150.702 0 150.172 0H138C136.895 0 136 0.89543 136 2V27C136 28.1046 135.105 29 134 29H132C130.895 29 130 29.8954 130 31V83C130 84.1046 129.105 85 128 85H127C125.895 85 125 85.8954 125 87V221C125 222.105 124.105 223 123 223H116C114.895 223 114 222.105 114 221V177C114 175.895 113.105 175 112 175H53C51.8954 175 51 175.895 51 177V353C51 354.105 50.1046 355 49 355H47C45.8954 355 45 354.105 45 353V323C45 321.895 44.1046 321 43 321H39C37.8954 321 37 320.105 37 319V287C37 285.895 36.1046 285 35 285H33C31.8954 285 31 284.105 31 283V244C31 242.895 30.1046 242 29 242H8C6.89543 242 6 242.895 6 244V283C6 284.105 5.10457 285 4 285H2C0.895431 285 0 285.895 0 287V374C0 375.105 0.895423 376 1.99999 376H655C656.105 376 657 375.105 657 374V325C657 323.895 656.105 323 655 323H623C621.895 323 621 323.895 621 325V335C621 336.105 620.105 337 619 337H618C616.895 337 616 336.105 616 335V334.5C616 333.672 615.328 333 614.5 333C613.672 333 613 332.328 613 331.5V200C613 198.895 612.105 198 611 198H548C546.895 198 546 198.895 546 200V215C546 216.105 545.105 217 544 217H534C532.895 217 532 216.105 532 215V89C532 87.8954 531.105 87 530 87H509.828C509.298 87 508.789 87.2107 508.414 87.5858L491.586 104.414C491.211 104.789 491 105.298 491 105.828V114Z" fill="#E3EBFA"/>
</svg>
