<svg width="192" height="64" fill="none" viewBox="0 0 192 64" xmlns="http://www.w3.org/2000/svg">
  <path fill="#2B6BF3" d="M169 23c0-1.1046.895-2 2-2h4c1.105 0 2 .8954 2 2v4c0 1.1046.895 2 2 2h3c1.105 0 2-.8954 2-2v-3.9973c0-1.1042.895-1.9994 1.999-1.9999l4-.0019c1.105-.0005 2.001.8951 2.001 2v17.999c0 1.1046-.896 2-2 2l-4-.0003c-1.105-.0001-2-.8955-2-2V37c0-1.1046-.895-2-2-2h-3c-1.105 0-2 .8954-2 2v4.0053c0 1.1023-.892 1.9968-1.994 1.9979-1.314.0013-2.695.0007-4.009-.0007-1.103-.0011-1.997-.8961-1.997-1.9995V23ZM154.103 20.337c2.787-.6838 6.062-.3763 9.388 1.3782.317.1674.509.5011.509.86v2.6452c0 .7784-.857 1.269-1.564.9422-1.854-.8578-4.107-1.4738-5.942-1.0003-1.271.2937-1.59 2.2022-.549 2.9672 2.301 1.8196 5.61 1.8892 7.633 4.157 1.542 1.6651 1.651 4.1995 1.166 6.3283-.902 3.2143-4.174 5.0456-7.25 5.3121-3.094.2625-6.285-.1575-9.01-1.6632-.305-.1681-.484-.4936-.484-.8414V37.931c0-.8138.932-1.3021 1.641-.903 1.935 1.0891 4.315 1.964 6.285 1.6717 1.031-.1429 2.17-.931 2.08-2.121-.309-1.2208-1.602-1.7076-2.61-2.1673-1.932-.8848-4.147-1.3909-5.681-2.9787-1.681-1.7231-1.858-4.497-1.023-6.6799.902-2.3219 3.143-3.7784 5.411-4.4158Z"/>
  <path fill="#C2D2F4" fill-rule="evenodd" d="M134 44c0 3-1 14-29.5 14v-3C129 55 131 47 131 44h3Z" clip-rule="evenodd"/>
  <path fill="#B7C6E7" fill-rule="evenodd" d="M134 44c0 3-1 14-29.5 14v-3C129 55 131 47 131 44h3Z" clip-rule="evenodd"/>
  <path fill="#FFDD2D" fill-rule="evenodd" d="M137.676 20.4503c.015-.0576.016-.0607.016-.012 0-2.8535-2.324-5.1667-5.192-5.1667-2.868 0-5.192 2.3132-5.192 5.1667 0-.0487.001-.0456.016.012.048.1791.239.8854.99 2.2071.883 1.554 2.158 3.2974 3.581 5.0194.201.2442.403.4848.605.7212.202-.2364.404-.477.605-.7212 1.423-1.722 2.698-3.4654 3.581-5.0194.751-1.3217.942-2.028.99-2.2071ZM132.5 39S145 27.3077 145 20.4383C145 13.5688 139.404 8 132.5 8S120 13.5688 120 20.4383C120 27.3077 132.5 39 132.5 39Z" clip-rule="evenodd"/>
  <path fill="#2B6BF3" fill-rule="evenodd" d="M109.676 32.4503c.015-.0576.016-.0607.016-.012 0-2.8535-2.324-5.1667-5.192-5.1667-2.868 0-5.1923 2.3132-5.1923 5.1667 0-.0487.0008-.0456.0164.012.0483.1791.2391.8854.9899 2.2071.883 1.554 2.158 3.2974 3.581 5.0194.201.2442.403.4848.605.7212.202-.2364.404-.477.605-.7212 1.423-1.722 2.698-3.4654 3.581-5.0194.751-1.3217.942-2.028.99-2.2071ZM104.5 51S117 39.3077 117 32.4383C117 25.5688 111.404 20 104.5 20 97.5964 20 92 25.5688 92 32.4383 92 39.3077 104.5 51 104.5 51Z" clip-rule="evenodd"/>
  <path fill="#2B6BF3" d="M64 23c0-1.1046.8954-2 2-2h4c1.1046 0 2 .8954 2 2v4c0 1.1046.8955 2 2 2h3c1.1046 0 2-.8954 2-2v-3.9973c0-1.1042.8949-1.9994 1.9991-1.9999l4-.0019c1.1049-.0005 2.0009.8951 2.0009 2v17.999c0 1.1046-.8955 2-2.0001 2l-4-.0003c-1.1045-.0001-1.9999-.8955-1.9999-2V37c0-1.1046-.8954-2-2-2h-3c-1.1045 0-2 .8954-2 2v4.0053c0 1.1023-.8917 1.9968-1.9939 1.9979-1.3145.0013-2.6954.0007-4.0092-.0007C64.8935 43.0014 64 42.1064 64 41.003V23ZM7 18c0-1.5 1-2.9436 3-3h17.4672c.9044 0 1.6962.6068 1.9313 1.4801l2.2554 8.3774c.2562.9513 1.5884.9981 1.9106.0671l2.9686-8.5757c.2793-.807 1.0403-1.3476 1.8944-1.3457l4.1523.0092c.8505.0019 1.6068.5415 1.8853 1.3451l2.9705 8.5712c.3225.9305 1.6541.8837 1.9104-.0672l2.2552-8.3665c.2353-.8729 1.027-1.4795 1.9311-1.4795h4.7236c1.3562 0 2.3192 1.3213 1.904 2.6124l-7.7136 23.9844c-.266.827-1.0353 1.3877-1.904 1.3877h-4.9615c-.9266 0-1.7319-.6365-1.9459-1.538l-2.1572-9.0864c-.2433-1.0249-1.7015-1.0255-1.9457-.0008l-2.1659 9.0888C37.1515 42.3644 36.3466 43 35.4206 43H21c-2 0-3-1.5-3-3s1-3 3-3h3c2 0 3-1 3-2.5S26 32 24 32H3c-2 0-3-1.5-3-3s1-3 3-3h19c2 0 3-1 3-2.5s-1.0716-2.526-3-2.5H10c-2 0-3-1.5-3-3Z"/>
  <path fill="#2B6BF3" d="M6 40c0-1.6569 1.34315-3 3-3h3c1.6569 0 3 1.3431 3 3s-1.3431 3-3 3H9c-1.65685 0-3-1.3431-3-3Z"/>
</svg>