<svg width="16" height="16" viewBox="0 0 16 16" fill="none" xmlns="http://www.w3.org/2000/svg">
  <path stroke="#C2D2F4" stroke-width="2" d="M13 6c0 .57825-.279 1.43892-.8266 2.50282-.531 1.03157-1.2499 2.13338-1.9853 3.15598-.73273 1.0189-1.46766 1.9396-2.0205 2.6065-.05799.07-.11393.1371-.1676.2012-.05367-.0641-.10961-.1312-.1676-.2012-.55284-.6669-1.28777-1.5876-2.02054-2.6065-.73538-1.0226-1.45426-2.12441-1.98523-3.15598C3.27902 7.43892 3 6.57825 3 6c0-2.76142 2.23858-5 5-5 2.7614 0 5 2.23858 5 5Z"/>
  <path stroke="#B7C6E7" stroke-width="2" d="M13 6c0 .57825-.279 1.43892-.8266 2.50282-.531 1.03157-1.2499 2.13338-1.9853 3.15598-.73273 1.0189-1.46766 1.9396-2.0205 2.6065-.05799.07-.11393.1371-.1676.2012-.05367-.0641-.10961-.1312-.1676-.2012-.55284-.6669-1.28777-1.5876-2.02054-2.6065-.73538-1.0226-1.45426-2.12441-1.98523-3.15598C3.27902 7.43892 3 6.57825 3 6c0-2.76142 2.23858-5 5-5 2.7614 0 5 2.23858 5 5Z"/>
</svg>