<svg width="120" height="40" viewBox="0 0 120 40" fill="none" xmlns="http://www.w3.org/2000/svg">
  <path fill="#2B6BF3" d="M105.625 15.125c0-1.1046.895-2 2-2h1c1.105 0 2 .8954 2 2v1c0 1.1046.895 2 2 2H113c1.105 0 2-.8954 2-2v-.9986c0-1.1042.895-1.9995 1.999-2l1-.0005c1.105-.0005 2.001.8951 2.001 2v9.749c0 1.1046-.896 2-2 2l-1-.0001c-1.105-.0001-2-.8955-2-2v-.9998c0-1.1046-.895-2-2-2h-.375c-1.105 0-2 .8954-2 2v1.0056c0 1.1022-.892 1.9966-1.994 1.9968-.335.0001-.674 0-1.009-.0002-1.103-.0007-1.997-.8958-1.997-1.9992v-9.753ZM96.3142 12.7106c1.6879-.4141 3.662-.2465 5.6738.7619.321.1608.512.4958.512.8546v.7714c0 .7784-.862 1.2723-1.589.9947-1.0199-.3892-2.1508-.6123-3.1021-.3667-.7944.1835-.9941 1.3763-.3431 1.8544 1.4382 1.1373 3.5062 1.1808 4.7702 2.5982.964 1.0407 1.032 2.6247.729 3.9551-.564 2.009-2.609 3.1535-4.531 3.3201-1.8641.1582-3.7846-.0801-5.4466-.9405-.3089-.1599-.4874-.487-.4874-.8347v-1.2428c0-.8138.9385-1.3082 1.6726-.957 1.0673.5106 2.2618.8592 3.2814.708.644-.0893 1.356-.5819 1.2996-1.3256-.1927-.763-1.0011-1.0673-1.6309-1.3546-1.208-.553-2.5922-.8693-3.5511-1.8617-1.0504-1.0769-1.1609-2.8106-.6392-4.1749.564-1.4512 1.9647-2.3615 3.3818-2.7599Z"/>
  <path fill="#C2D2F4" fill-rule="evenodd" d="M83.75 27.5c0 1.875-.625 8.75-18.4375 8.75v-1.875c15.3125 0 16.5625-5 16.5625-6.875h1.875Z" clip-rule="evenodd"/>
  <path fill="#B7C6E7" fill-rule="evenodd" d="M83.75 27.5c0 1.875-.625 8.75-18.4375 8.75v-1.875c15.3125 0 16.5625-5 16.5625-6.875h1.875Z" clip-rule="evenodd"/>
  <path fill="#FFDD2D" fill-rule="evenodd" d="M86.0475 12.7814c.0097-.036.0102-.0379.0102-.0075 0-1.7834-1.4529-3.22915-3.2452-3.22915s-3.2452 1.44575-3.2452 3.22915c0-.0304.0005-.0285.0102.0075.0303.112.1495.5534.6189 1.3794.552.9713 1.3483 2.061 2.2377 3.1372.1261.1526.2525.303.3784.4508.1259-.1478.2523-.2982.3784-.4508.8893-1.0762 1.6857-2.1659 2.2377-3.1372.4694-.826.5886-1.2674.6189-1.3794Zm-3.235 11.5936s7.8125-7.3077 7.8125-11.6011C90.625 8.4805 87.1272 5 82.8125 5S75 8.4805 75 12.7739s7.8125 11.6011 7.8125 11.6011Z" clip-rule="evenodd"/>
  <path fill="#2B6BF3" fill-rule="evenodd" d="M68.5475 20.2814c.0097-.036.0102-.0379.0102-.0075 0-1.7834-1.4529-3.2291-3.2452-3.2291s-3.2452 1.4457-3.2452 3.2291c0-.0304.0005-.0285.0102.0075.0303.112.1495.5534.6189 1.3794.552.9713 1.3483 2.061 2.2377 3.1372.1261.1526.2525.303.3784.4508.1259-.1478.2523-.2982.3784-.4508.8893-1.0762 1.6857-2.1659 2.2377-3.1372.4694-.826.5886-1.2674.6189-1.3794Zm-3.235 11.5936s7.8125-7.3077 7.8125-11.6011c0-4.2934-3.4978-7.7739-7.8125-7.7739S57.5 15.9805 57.5 20.2739s7.8125 11.6011 7.8125 11.6011Z" clip-rule="evenodd"/>
  <path fill="#2B6BF3" d="M40 15.125c0-1.1046.8954-2 2-2h1c1.1046 0 2 .8954 2 2v1c0 1.1046.8955 2 2 2h.375c1.1046 0 2-.8954 2-2v-.9986c0-1.1042.8949-1.9995 1.9991-2l1-.0005c1.1049-.0005 2.0009.8951 2.0009 2v9.749c0 1.1046-.8955 2-2.0001 2l-1-.0001c-1.1045-.0001-1.9999-.8955-1.9999-2v-.9998c0-1.1046-.8954-2-2-2H47c-1.1045 0-2 .8954-2 2v1.0056c0 1.1022-.8918 1.9966-1.994 1.9968-.3355.0001-.6736 0-1.009-.0002C40.8936 26.8765 40 25.9814 40 24.878v-9.753ZM4.375 11.25c0-.9375.625-1.83973 1.875-1.875h10.3422c.9044 0 1.6962.60683 1.9313 1.4801l.9429 3.5024c.2562.9513 1.5884.9981 1.9106.0671l1.2811-3.7007c.2793-.80701 1.0403-1.34763 1.8944-1.34573l1.5273.00339c.8505.00189 1.6068.54146 1.8853 1.34504l1.283 3.7021c.3225.9305 1.6541.8837 1.9104-.0672l.9427-3.4973c.2353-.87296 1.027-1.47949 1.9311-1.47949h1.3486c1.3562 0 2.3192 1.32119 1.904 2.61229l-4.3386 13.4903c-.266.827-1.0353 1.3877-1.904 1.3877h-1.9615c-.9266 0-1.7319-.6365-1.9459-1.538l-.8472-3.5683c-.2433-1.0249-1.7015-1.0255-1.9457-.0008l-.8509 3.5707c-.2146.9008-1.0195 1.5364-1.9455 1.5364H13.125c-1.25 0-1.875-.9375-1.875-1.875s.625-1.875 1.875-1.875H15c1.25 0 1.875-.625 1.875-1.5625S16.25 20 15 20H1.875C.625 20 0 19.0625 0 18.125s.625-1.875 1.875-1.875H13.75c1.25 0 1.875-.625 1.875-1.5625s-.6698-1.5788-1.875-1.5625h-7.5c-1.25 0-1.875-.9375-1.875-1.875Z"/>
  <path fill="#2B6BF3" d="M3.75 25c0-1.0355.83947-1.875 1.875-1.875H7.5c1.03553 0 1.875.8395 1.875 1.875 0 1.0355-.83947 1.875-1.875 1.875H5.625c-1.03553 0-1.875-.8395-1.875-1.875Z"/>
</svg>