<svg width="26" height="26" viewBox="0 0 26 26" fill="none" xmlns="http://www.w3.org/2000/svg">
  <path fill="#FD466E" stroke="#F8FAFF" stroke-width="2" d="M21.4 7.8c1.8778 0 3.4-1.52223 3.4-3.4S23.2778 1 21.4 1 18 2.52223 18 4.4s1.5222 3.4 3.4 3.4Z"/>
  <path fill="#C2D2F4" d="M12 13.3999c.5934 0 1.1735-.176 1.6669-.5057.4933-.3297.8779-.7983 1.1049-1.3466.227-.5483.2863-1.1516.1704-1.73356-.1159-.58198-.4018-1.11653-.8215-1.53602-.4197-.4195-.9544-.70509-1.5364-.82067-.5821-.11557-1.1853-.05593-1.7335.17137-.5481.22731-1.01656.61208-1.34601 1.10564s-.50513 1.07373-.50481 1.66714c.00127.7951.3178 1.5573.88018 2.1194.56234.562 1.32474.8782 2.11984.879Z"/>
  <path fill="#B7C6E7" d="M12 13.3999c.5934 0 1.1735-.176 1.6669-.5057.4933-.3297.8779-.7983 1.1049-1.3466.227-.5483.2863-1.1516.1704-1.73356-.1159-.58198-.4018-1.11653-.8215-1.53602-.4197-.4195-.9544-.70509-1.5364-.82067-.5821-.11557-1.1853-.05593-1.7335.17137-.5481.22731-1.01656.61208-1.34601 1.10564s-.50513 1.07373-.50481 1.66714c.00127.7951.3178 1.5573.88018 2.1194.56234.562 1.32474.8782 2.11984.879Z"/>
  <path fill="#C2D2F4" d="M8.01637 20.5999h7.96723c.3756 0 .7359-.1406 1.0015-.3909.2657-.2503.4149-.5898.4149-.9438v-.3053c-.0361-1.3271-.6208-2.5883-1.6296-3.5149-1.0088-.9265-2.3617-1.4451-3.7704-1.4451s-2.76168.5186-3.77044 1.4451c-1.00877.9266-1.59352 2.1878-1.62958 3.5149v.3053c0 .354.14922.6935.41485.9438.13152.1239.28766.2222.45951.2893.17184.0671.35603.1016.54203.1016Z"/>
  <path fill="#B7C6E7" d="M8.01637 20.5999h7.96723c.3756 0 .7359-.1406 1.0015-.3909.2657-.2503.4149-.5898.4149-.9438v-.3053c-.0361-1.3271-.6208-2.5883-1.6296-3.5149-1.0088-.9265-2.3617-1.4451-3.7704-1.4451s-2.76168.5186-3.77044 1.4451c-1.00877.9266-1.59352 2.1878-1.62958 3.5149v.3053c0 .354.14922.6935.41485.9438.13152.1239.28766.2222.45951.2893.17184.0671.35603.1016.54203.1016Z"/>
  <rect width="23" height="23" x=".5" y="2.5" stroke="#C2D2F4" rx="11.5"/>
  <rect width="23" height="23" x=".5" y="2.5" stroke="#B7C6E7" rx="11.5"/>
</svg>